<svg xmlns="http://www.w3.org/2000/svg" xmlns:xlink="http://www.w3.org/1999/xlink" width="353" viewBox="0 0 264.75 44.999999" height="60" preserveAspectRatio="xMidYMid meet"><defs><g></g><clipPath id="275a3809a5"><path d="M 4.496094 2.65625 L 44.207031 2.65625 L 44.207031 42.371094 L 4.496094 42.371094 Z M 4.496094 2.65625 " clip-rule="nonzero"></path></clipPath></defs><g fill="#ffffff" fill-opacity="1"><g transform="translate(54.756, 34.487422)"><g><path d="M 5.6875 0 L 0.84375 0 L 5.765625 -23.25 L 18.703125 -23.25 L 17.84375 -19.21875 L 9.765625 -19.21875 L 8.515625 -13.21875 L 16.03125 -13.21875 L 15.140625 -9.1875 L 7.625 -9.1875 Z M 5.6875 0 "></path></g></g></g><g fill="#ffffff" fill-opacity="1"><g transform="translate(71.326604, 34.487422)"><g><path d="M 8.4375 -12.9375 L 9.671875 -12.9375 C 11.054688 -12.9375 12.132812 -13.238281 12.90625 -13.84375 C 13.6875 -14.445312 14.078125 -15.367188 14.078125 -16.609375 C 14.078125 -17.472656 13.820312 -18.125 13.3125 -18.5625 C 12.8125 -19 12.019531 -19.21875 10.9375 -19.21875 L 9.765625 -19.21875 Z M 7.59375 -8.921875 L 5.6875 0 L 0.84375 0 L 5.765625 -23.25 L 11.46875 -23.25 C 13.976562 -23.25 15.863281 -22.707031 17.125 -21.625 C 18.394531 -20.550781 19.03125 -18.96875 19.03125 -16.875 C 19.03125 -15.195312 18.585938 -13.753906 17.703125 -12.546875 C 16.828125 -11.347656 15.5625 -10.457031 13.90625 -9.875 L 18.0625 0 L 12.78125 0 L 9.484375 -8.921875 Z M 7.59375 -8.921875 "></path></g></g></g><g fill="#ffffff" fill-opacity="1"><g transform="translate(90.441801, 34.487422)"><g><path d="M 13.84375 0 L 0.84375 0 L 5.765625 -23.25 L 18.765625 -23.25 L 17.90625 -19.21875 L 9.765625 -19.21875 L 8.703125 -14.109375 L 16.296875 -14.109375 L 15.421875 -10.0625 L 7.828125 -10.0625 L 6.546875 -4.078125 L 14.703125 -4.078125 Z M 13.84375 0 "></path></g></g></g><g fill="#ffffff" fill-opacity="1"><g transform="translate(107.378187, 34.487422)"><g><path d="M 13.84375 0 L 0.84375 0 L 5.765625 -23.25 L 18.765625 -23.25 L 17.90625 -19.21875 L 9.765625 -19.21875 L 8.703125 -14.109375 L 16.296875 -14.109375 L 15.421875 -10.0625 L 7.828125 -10.0625 L 6.546875 -4.078125 L 14.703125 -4.078125 Z M 13.84375 0 "></path></g></g></g><g fill="#ffffff" fill-opacity="1"><g transform="translate(124.314578, 34.487422)"><g><path d="M 0.84375 0 L 5.765625 -23.25 L 10.625 -23.25 L 6.546875 -4.078125 L 14.703125 -4.078125 L 13.84375 0 Z M 0.84375 0 "></path></g></g></g><g fill="#ffffff" fill-opacity="1"><g transform="translate(140.471688, 34.487422)"><g><path d="M 13.390625 -5.53125 L 5.875 -5.53125 L 3.140625 0 L -1.953125 0 L 10.234375 -23.359375 L 16.15625 -23.359375 L 18.5 0 L 13.78125 0 Z M 13.15625 -9.671875 L 12.734375 -15.234375 C 12.628906 -16.628906 12.578125 -17.972656 12.578125 -19.265625 L 12.578125 -19.84375 C 12.109375 -18.5625 11.53125 -17.210938 10.84375 -15.796875 L 7.859375 -9.671875 Z M 13.15625 -9.671875 "></path></g></g></g><g fill="#ffffff" fill-opacity="1"><g transform="translate(160.207133, 34.487422)"><g><path d="M 19.84375 0 L 14.390625 0 L 8.734375 -17.59375 L 8.640625 -17.59375 L 8.578125 -17.078125 C 8.234375 -14.796875 7.882812 -12.75 7.53125 -10.9375 L 5.21875 0 L 0.84375 0 L 5.765625 -23.25 L 11.4375 -23.25 L 16.84375 -6.125 L 16.90625 -6.125 C 17.03125 -6.925781 17.234375 -8.070312 17.515625 -9.5625 C 17.804688 -11.0625 18.765625 -15.625 20.390625 -23.25 L 24.75 -23.25 Z M 19.84375 0 "></path></g></g></g><g fill="#ffffff" fill-opacity="1"><g transform="translate(184.077543, 34.487422)"><g><path d="M 14.390625 -19.515625 C 12.992188 -19.515625 11.734375 -19.082031 10.609375 -18.21875 C 9.492188 -17.363281 8.597656 -16.101562 7.921875 -14.4375 C 7.242188 -12.769531 6.90625 -10.972656 6.90625 -9.046875 C 6.90625 -7.273438 7.265625 -5.957031 7.984375 -5.09375 C 8.710938 -4.238281 9.875 -3.8125 11.46875 -3.8125 C 13.019531 -3.8125 14.8125 -4.222656 16.84375 -5.046875 L 16.84375 -0.90625 C 14.738281 -0.09375 12.617188 0.3125 10.484375 0.3125 C 7.785156 0.3125 5.6875 -0.476562 4.1875 -2.0625 C 2.695312 -3.644531 1.953125 -5.890625 1.953125 -8.796875 C 1.953125 -11.578125 2.503906 -14.132812 3.609375 -16.46875 C 4.710938 -18.8125 6.1875 -20.585938 8.03125 -21.796875 C 9.875 -23.015625 11.992188 -23.625 14.390625 -23.625 C 15.722656 -23.625 16.898438 -23.503906 17.921875 -23.265625 C 18.953125 -23.023438 20.054688 -22.585938 21.234375 -21.953125 L 19.359375 -17.96875 C 18.234375 -18.59375 17.304688 -19.003906 16.578125 -19.203125 C 15.847656 -19.410156 15.117188 -19.515625 14.390625 -19.515625 Z M 14.390625 -19.515625 "></path></g></g></g><g fill="#ffffff" fill-opacity="1"><g transform="translate(203.288165, 34.487422)"><g><path d="M 13.84375 0 L 0.84375 0 L 5.765625 -23.25 L 18.765625 -23.25 L 17.90625 -19.21875 L 9.765625 -19.21875 L 8.703125 -14.109375 L 16.296875 -14.109375 L 15.421875 -10.0625 L 7.828125 -10.0625 L 6.546875 -4.078125 L 14.703125 -4.078125 Z M 13.84375 0 "></path></g></g></g><g fill="#ffffff" fill-opacity="1"><g transform="translate(220.224557, 34.487422)"><g><path d="M 13.390625 -5.53125 L 5.875 -5.53125 L 3.140625 0 L -1.953125 0 L 10.234375 -23.359375 L 16.15625 -23.359375 L 18.5 0 L 13.78125 0 Z M 13.15625 -9.671875 L 12.734375 -15.234375 C 12.628906 -16.628906 12.578125 -17.972656 12.578125 -19.265625 L 12.578125 -19.84375 C 12.109375 -18.5625 11.53125 -17.210938 10.84375 -15.796875 L 7.859375 -9.671875 Z M 13.15625 -9.671875 "></path></g></g></g><g fill="#ffffff" fill-opacity="1"><g transform="translate(239.960002, 34.487422)"><g><path d="M 8.4375 -12.9375 L 9.671875 -12.9375 C 11.054688 -12.9375 12.132812 -13.238281 12.90625 -13.84375 C 13.6875 -14.445312 14.078125 -15.367188 14.078125 -16.609375 C 14.078125 -17.472656 13.820312 -18.125 13.3125 -18.5625 C 12.8125 -19 12.019531 -19.21875 10.9375 -19.21875 L 9.765625 -19.21875 Z M 7.59375 -8.921875 L 5.6875 0 L 0.84375 0 L 5.765625 -23.25 L 11.46875 -23.25 C 13.976562 -23.25 15.863281 -22.707031 17.125 -21.625 C 18.394531 -20.550781 19.03125 -18.96875 19.03125 -16.875 C 19.03125 -15.195312 18.585938 -13.753906 17.703125 -12.546875 C 16.828125 -11.347656 15.5625 -10.457031 13.90625 -9.875 L 18.0625 0 L 12.78125 0 L 9.484375 -8.921875 Z M 7.59375 -8.921875 "></path></g></g></g><g clip-path="url(#275a3809a5)"><path fill="#ffffff" d="M 24.335938 2.65625 C 13.390625 2.65625 4.496094 11.550781 4.496094 22.496094 C 4.496094 33.441406 13.390625 42.335938 24.335938 42.335938 C 25.390625 42.335938 26.433594 42.25 27.460938 42.085938 C 27.394531 41.972656 27.34375 41.871094 27.308594 41.757812 L 26.351562 38.894531 C 25.691406 38.980469 25.011719 39.027344 24.335938 39.027344 C 15.226562 39.027344 7.800781 31.605469 7.800781 22.496094 C 7.800781 13.386719 15.226562 5.964844 24.335938 5.964844 C 33.445312 5.964844 40.867188 13.386719 40.867188 22.496094 C 40.867188 23.191406 40.816406 23.867188 40.734375 24.53125 L 43.578125 25.472656 C 43.695312 25.503906 43.808594 25.554688 43.925781 25.621094 C 44.089844 24.59375 44.171875 23.554688 44.171875 22.496094 C 44.171875 11.550781 35.277344 2.65625 24.335938 2.65625 Z M 24.335938 2.65625 " fill-opacity="1" fill-rule="nonzero"></path></g><path fill="#ffffff" d="M 24.335938 10.742188 C 17.855469 10.742188 12.578125 16.015625 12.578125 22.496094 C 12.578125 28.976562 17.855469 34.25 24.335938 34.25 C 24.484375 34.25 24.648438 34.25 24.796875 34.21875 L 23.691406 30.910156 C 19.324219 30.582031 15.886719 26.941406 15.886719 22.496094 C 15.886719 17.832031 19.671875 14.046875 24.335938 14.046875 C 28.78125 14.046875 32.433594 17.503906 32.75 21.867188 L 36.054688 22.976562 C 36.089844 22.808594 36.089844 22.660156 36.089844 22.496094 C 36.089844 16.015625 30.816406 10.742188 24.335938 10.742188 Z M 24.335938 10.742188 " fill-opacity="1" fill-rule="nonzero"></path><path fill="#ffffff" d="M 24.335938 17.207031 C 21.425781 17.207031 19.042969 19.585938 19.042969 22.496094 C 19.042969 24.777344 20.515625 26.726562 22.550781 27.472656 L 22.054688 25.96875 C 21.507812 24.316406 21.921875 22.527344 23.144531 21.304688 C 24.003906 20.445312 25.144531 19.984375 26.367188 19.984375 C 26.847656 19.984375 27.328125 20.050781 27.789062 20.214844 L 29.3125 20.726562 C 28.582031 18.675781 26.617188 17.207031 24.335938 17.207031 Z M 24.335938 17.207031 " fill-opacity="1" fill-rule="nonzero"></path><path fill="#ffffff" d="M 31.625 41.546875 C 31.613281 41.546875 31.605469 41.546875 31.59375 41.546875 C 31.074219 41.535156 30.613281 41.195312 30.445312 40.699219 L 25.183594 24.917969 C 25.035156 24.46875 25.152344 23.980469 25.484375 23.648438 C 25.820312 23.3125 26.308594 23.199219 26.753906 23.347656 L 42.539062 28.609375 C 43.035156 28.773438 43.371094 29.234375 43.386719 29.753906 C 43.398438 30.277344 43.078125 30.753906 42.59375 30.941406 L 35.507812 33.664062 L 32.785156 40.75 C 32.597656 41.230469 32.136719 41.546875 31.625 41.546875 Z M 31.625 41.546875 " fill-opacity="1" fill-rule="nonzero"></path></svg>